{"title":"Boys and Girls (The Sausage Factory) - S01E13 - 2001 ITA","uid":15650767,"size":2863411200,"categoryP":"video","categoryS":"tv_shows","magnet":"?xt=urn:btih:2698e193898a48a12564ab2462ff241b7a843428&amp;dn=Boys+and+Girls+%28The+Sausage+Factory%29+-+S01E13+-+2001+ITA&amp;tr=udp%3A%2F%2Ftracker.leechers-paradise.org%3A6969&amp;tr=udp%3A%2F%2Fzer0day.ch%3A1337&amp;tr=udp%3A%2F%2Fopen.demonii.com%3A1337&amp;tr=udp%3A%2F%2Ftracker.coppersurfer.tk%3A6969&amp;tr=udp%3A%2F%2Fexodus.desync.com%3A6969","seeders":1,"leechers":0,"uploader":"DPA65MI","files":13,"time":1472091894,"description":"Storyline\r\nIn this American Pie style comedy, 4 friends go through the normal days of high school. Each experience their own adventures. Ted wants Nancy, his girlfriend, to finally let out. Zack loves Lisa, but never gets the right moment to ask her out. J.C. is always finding older and mysterious women who fall in love with him. And Gilby is always getting himself into trouble.\r\n\r\n-----------------------------------------------------------------------------------\r\n\r\nGeneral\r\nEpisodi1 - Community Impact .avi\r\nFormat                                   : AVI\r\nFormat/Info                              : Audio Video Interleave\r\nFile size                                : 210 MiB\r\nDuration                                 : 20 min\r\nOverall bit rate                         : 1 424 kb/s\r\nMovie name                               : Boys &amp; Girls\r\nSubject                                  : Ep. 01 - Community Impact\r\nWriting application                      : VirtualDubMod 1.5.10.1 (build 2439/release)\r\nCopyright                                : SilverDrake (2005)\r\n\r\nVideo\r\nID                                       : 0\r\nFormat                                   : MPEG-4 Visual\r\nFormat settings, BVOP                    : 1\r\nFormat settings, QPel                    : No\r\nFormat settings, GMC                     : No warppoints\r\nFormat settings, Matrix                  : Default (H.263)\r\nMuxing mode                              : Packed bitstream\r\nCodec ID                                 : DX50\r\nCodec ID/Hint                            : DivX 5\r\nDuration                                 : 20 min\r\nBit rate                                 : 1 286 kb/s\r\nWidth                                    : 512 pixels\r\nHeight                                   : 384 pixels\r\nDisplay aspect ratio                     : 4:3\r\nFrame rate                               : 25.000 FPS\r\nColor space                              : YUV\r\nChroma subsampling                       : 4:2:0\r\nBit depth                                : 8 bits\r\nScan type                                : Progressive\r\nCompression mode                         : Lossy\r\nBits/(Pixel*Frame)                       : 0.262\r\nStream size                              : 190 MiB (90%)\r\nWriting library                          : DivX 5.2.1 Beta (UTC 2004-09-08)\r\n\r\nAudio\r\nID                                       : 1\r\nFormat                                   : MPEG Audio\r\nFormat version                           : Version 1\r\nFormat profile                           : Layer 3\r\nCodec ID                                 : 55\r\nCodec ID/Hint                            : MP3\r\nDuration                                 : 20 min\r\nBit rate mode                            : Constant\r\nBit rate                                 : 128 kb/s\r\nChannel(s)                               : 2 channels\r\nSampling rate                            : 48.0 kHz\r\nCompression mode                         : Lossy\r\nStream size                              : 18.9 MiB (9%)\r\nAlignment                                : Split accross interleaves\r\nInterleave, duration                     : 40  ms (1.00 video frame)\r\nInterleave, preload duration             : 500  ms\r\nLanguage                                 : Italian","torrent":{"xt":"urn:btih:2698e193898a48a12564ab2462ff241b7a843428","amp;dn":"Boys+and+Girls+%28The+Sausage+Factory%29+-+S01E13+-+2001+ITA","amp;tr":["udp%3A%2F%2Ftracker.leechers-paradise.org%3A6969","udp%3A%2F%2Fzer0day.ch%3A1337","udp%3A%2F%2Fopen.demonii.com%3A1337","udp%3A%2F%2Ftracker.coppersurfer.tk%3A6969","udp%3A%2F%2Fexodus.desync.com%3A6969"],"infoHash":"2698e193898a48a12564ab2462ff241b7a843428","infoHashBuffer":{"type":"Buffer","data":[38,152,225,147,137,138,72,161,37,100,171,36,98,255,36,27,122,132,52,40]},"announce":[],"urlList":[]}}